<svg width="278" height="74" viewBox="0 0 278 74" fill="none" xmlns="http://www.w3.org/2000/svg">
<path fill-rule="evenodd" clip-rule="evenodd" d="M245.719 38.8575C249.328 38.8575 252.335 37.6526 254.641 35.1425C256.947 32.6323 258.15 29.4193 258.15 25.2022C258.15 21.0855 256.947 17.772 254.641 15.2619C252.335 12.7517 249.328 11.5468 245.719 11.5468C242.11 11.5468 239.102 12.7517 236.696 15.2619C234.29 17.772 233.187 20.9851 233.187 25.2022C233.187 29.3189 234.39 32.6323 236.696 35.1425C239.002 37.6526 242.009 38.8575 245.719 38.8575ZM96.1421 11.7476C92.533 11.7476 89.5254 12.9525 87.1194 15.4627C84.8136 17.9729 83.6105 21.1859 83.6105 25.403C83.6105 29.5197 84.8136 32.8331 87.1194 35.3433C89.4252 37.8535 92.4327 39.0583 96.1421 39.0583C99.7512 39.0583 102.759 37.8535 105.165 35.3433C107.471 32.8331 108.674 29.6201 108.674 25.403C108.674 21.2863 107.471 17.9729 105.165 15.4627C102.759 12.9525 99.8514 11.7476 96.1421 11.7476ZM108.473 0.803257V5.7232C104.964 1.90773 100.052 0 93.736 0C89.2247 0 85.0141 1.00407 81.3047 3.11262C77.5954 5.22117 74.5878 8.13297 72.4825 11.9484C70.3772 15.7639 69.2744 20.1818 69.2744 25.2022C69.2744 30.2225 70.3772 34.6404 72.4825 38.4559C74.5878 42.2714 77.4951 45.1832 81.3047 47.2917C85.0141 49.4003 89.2247 50.4043 93.736 50.4043C99.9517 50.4043 104.964 48.3962 108.473 44.4803V48.8982C108.473 52.9145 107.27 56.228 104.964 58.6377C102.658 61.1479 99.6509 62.3528 95.9416 62.3528C92.3325 62.3528 89.2247 61.1479 86.9189 58.6377C86.1168 57.8345 85.5153 56.9308 85.0141 56.0271L71.2795 59.7422C71.5802 60.4451 71.9812 61.1479 72.3823 61.8507C74.6881 65.6662 77.8961 68.6784 82.0065 70.787C86.1169 72.8955 90.7285 74 95.9416 74C101.054 74 105.766 72.8955 109.776 70.787C110.979 70.1845 112.082 69.4817 113.085 68.6784C119 63.8589 122.909 57.6337 122.709 48.3962V0.803257H108.473ZM26.1659 32.8331C21.5543 30.2225 14.7371 30.2225 9.12297 27.1099C-0.100251 21.9891 -1.30328 10.844 7.01767 4.3175C10.727 1.4057 15.5391 0 21.5543 0C27.9704 0 33.0833 1.4057 36.9932 4.3175C40.903 7.22931 42.8078 11.0448 42.8078 15.7639H27.6697C27.6697 9.73948 21.053 8.33379 17.5442 11.2456C15.2384 13.1533 15.3386 16.2659 17.9452 17.8725C21.053 19.8806 27.8702 20.483 31.8803 21.8887C43.8103 26.0054 47.2189 39.0583 36.9932 46.2877C29.9755 51.2076 18.2459 51.81 10.5265 48.1954C4.71186 45.6852 0 40.5645 0 34.038H14.1356C14.3361 40.6649 22.9578 42.171 26.5669 39.2592C28.8727 37.3514 28.6722 34.3392 26.1659 32.8331ZM48.9232 0.803257H63.159V49.9023H48.9232V0.803257ZM192.585 0C198.7 0 203.613 1.80733 207.222 5.42198C210.831 9.03664 212.635 14.4586 212.635 21.6879V49.8019H198.4V23.8969C198.4 20.2822 197.798 16.2659 194.69 13.9566C189.978 10.0407 182.76 11.346 179.853 16.768C178.65 18.8765 178.349 22.692 178.349 25.2022V49.8019H164.113V23.8969C164.113 17.3704 161.206 11.6472 154.088 11.6472C149.577 11.6472 145.767 14.6594 144.664 18.7761C144.163 20.5834 144.263 23.2944 144.163 25.1018V49.7015H129.927V0.803257H144.163V5.7232C145.867 4.01628 147.872 2.61058 150.178 1.70692C152.785 0.602442 155.692 0.100407 158.9 0.100407C162.409 0.100407 165.517 0.803256 168.324 2.10855C171.131 3.51425 173.336 5.42198 175.041 8.13297C177.046 5.6228 179.552 3.61465 182.66 2.20896C185.567 0.70285 188.876 0 192.585 0ZM272.185 20.7843L278 49.9023H263.664L262.762 45.384C261.759 46.1873 260.656 46.7897 259.453 47.4925C255.343 49.7015 250.731 50.7056 245.618 50.7056C240.506 50.7056 235.794 49.6011 231.683 47.4925C227.573 45.2836 224.365 42.3718 222.059 38.5563C219.753 34.7408 218.55 30.4233 218.55 25.5034C218.55 20.6839 219.753 16.2659 222.059 12.4505C224.365 8.63501 227.573 5.6228 231.683 3.51425C235.794 1.30529 240.405 0.301221 245.618 0.301221C250.731 0.301221 255.443 1.4057 259.453 3.51425C263.564 5.7232 266.671 8.63501 268.977 12.4505C270.682 14.8602 271.684 17.6716 272.185 20.7843Z" fill="black"/>
</svg>
